<?xml version="1.0" encoding="UTF-8"?>
<svg xmlns="http://www.w3.org/2000/svg" width="960" height="380" viewBox="0 0 960 380" role="img" aria-label="Neighborhood structure">
  <rect width="960" height="380" fill="#ffffff"/>
  <g font-family="sans-serif">
    <rect x="40" y="146" width="180" height="90" rx="16" fill="#dbeafe" stroke="#2563eb" stroke-width="2"/>
    <text x="130" y="180" text-anchor="middle" font-size="18" font-weight="700" fill="#1e3a8a">Observation model</text>
    <circle cx="102" cy="204" r="9" fill="#bfdbfe" stroke="#2563eb" stroke-width="2"/>
    <circle cx="130" cy="204" r="9" fill="#bfdbfe" stroke="#2563eb" stroke-width="2"/>
    <circle cx="158" cy="204" r="9" fill="#bfdbfe" stroke="#2563eb" stroke-width="2"/>
    <text x="130" y="226" text-anchor="middle" font-size="13" fill="#1f2937">cues, events, provenance</text>

    <rect x="290" y="118" width="260" height="130" rx="18" fill="#ede9fe" stroke="#7c3aed" stroke-width="2"/>
    <text x="420" y="150" text-anchor="middle" font-size="18" font-weight="700" fill="#5b21b6">Theory frontier</text>
    <rect x="334" y="174" width="42" height="34" rx="5" fill="#ffffff" stroke="#7c3aed" stroke-width="2"/>
    <line x1="342" y1="186" x2="368" y2="186" stroke="#7c3aed" stroke-width="2"/>
    <path d="M385 191 L418 191" stroke="#7c3aed" stroke-width="3" marker-end="url(#arrow2-purple)"/>
    <rect x="428" y="174" width="42" height="34" rx="5" fill="#ffffff" stroke="#7c3aed" stroke-width="2"/>
    <line x1="436" y1="186" x2="462" y2="186" stroke="#7c3aed" stroke-width="2"/>
    <circle cx="498" cy="191" r="14" fill="#ffffff" stroke="#7c3aed" stroke-width="2"/>
    <text x="420" y="226" text-anchor="middle" font-size="13" fill="#1f2937">schema, rewrites, weights</text>

    <rect x="620" y="118" width="260" height="130" rx="18" fill="#dcfce7" stroke="#16a34a" stroke-width="2"/>
    <text x="750" y="150" text-anchor="middle" font-size="18" font-weight="700" fill="#166534">Transformation family</text>
    <rect x="652" y="170" width="72" height="24" rx="12" fill="#ffffff" stroke="#16a34a" stroke-width="2"/>
    <text x="688" y="187" text-anchor="middle" font-size="12" fill="#166534">refinement</text>
    <rect x="714" y="202" width="72" height="24" rx="12" fill="#ffffff" stroke="#16a34a" stroke-width="2"/>
    <text x="750" y="219" text-anchor="middle" font-size="12" fill="#166534">coarsening</text>
    <rect x="776" y="170" width="72" height="24" rx="12" fill="#ffffff" stroke="#16a34a" stroke-width="2"/>
    <text x="812" y="187" text-anchor="middle" font-size="12" fill="#166534">refactorization</text>
    <text x="750" y="226" text-anchor="middle" font-size="13" fill="#1f2937">observer shift, equivalence</text>

    <rect x="290" y="286" width="260" height="72" rx="18" fill="#fee2e2" stroke="#dc2626" stroke-width="2"/>
    <text x="420" y="316" text-anchor="middle" font-size="18" font-weight="700" fill="#991b1b">Consequence profile</text>
    <text x="420" y="338" text-anchor="middle" font-size="13" fill="#1f2937">robust and theory-sensitive</text>

    <path d="M220 191 L290 191" stroke="#475569" stroke-width="3" marker-end="url(#arrow2)"/>
    <path d="M550 191 L620 191" stroke="#475569" stroke-width="3" marker-end="url(#arrow2)"/>
    <path d="M420 248 L420 286" stroke="#475569" stroke-width="3" marker-end="url(#arrow2)"/>
    <path d="M680 248 C660 270 618 300 550 316" stroke="#475569" stroke-width="3" fill="none" marker-end="url(#arrow2)"/>
  </g>
  <defs>
    <marker id="arrow2" markerWidth="10" markerHeight="10" refX="9" refY="5" orient="auto">
      <path d="M0,0 L10,5 L0,10 Z" fill="#475569"/>
    </marker>
    <marker id="arrow2-purple" markerWidth="10" markerHeight="10" refX="9" refY="5" orient="auto">
      <path d="M0,0 L10,5 L0,10 Z" fill="#7c3aed"/>
    </marker>
  </defs>
</svg>
