<?xml version="1.0" encoding="UTF-8"?>
<svg xmlns="http://www.w3.org/2000/svg" width="960" height="340" viewBox="0 0 960 340" role="img" aria-label="Pipeline overview">
  <rect width="960" height="340" fill="#ffffff"/>
  <g font-family="sans-serif">
    <rect x="44" y="96" width="190" height="162" rx="18" fill="#dbeafe" stroke="#2563eb" stroke-width="2"/>
    <text x="139" y="128" text-anchor="middle" font-size="18" font-weight="700" fill="#1e3a8a">Observation lift</text>
    <rect x="88" y="148" width="44" height="56" rx="6" fill="#ffffff" stroke="#2563eb" stroke-width="2"/>
    <line x1="96" y1="164" x2="124" y2="164" stroke="#2563eb" stroke-width="2"/>
    <line x1="96" y1="176" x2="124" y2="176" stroke="#2563eb" stroke-width="2"/>
    <line x1="96" y1="188" x2="118" y2="188" stroke="#2563eb" stroke-width="2"/>
    <circle cx="170" cy="160" r="10" fill="#bfdbfe" stroke="#2563eb" stroke-width="2"/>
    <circle cx="195" cy="190" r="10" fill="#bfdbfe" stroke="#2563eb" stroke-width="2"/>
    <circle cx="145" cy="192" r="10" fill="#bfdbfe" stroke="#2563eb" stroke-width="2"/>
    <line x1="132" y1="176" x2="160" y2="165" stroke="#2563eb" stroke-width="2"/>
    <line x1="132" y1="182" x2="145" y2="192" stroke="#2563eb" stroke-width="2"/>
    <line x1="171" y1="169" x2="188" y2="182" stroke="#2563eb" stroke-width="2"/>
    <text x="139" y="232" text-anchor="middle" font-size="13" fill="#1f2937">report to hypotheses</text>

    <rect x="278" y="96" width="190" height="162" rx="18" fill="#ede9fe" stroke="#7c3aed" stroke-width="2"/>
    <text x="373" y="128" text-anchor="middle" font-size="18" font-weight="700" fill="#5b21b6">Theory induction</text>
    <rect x="310" y="154" width="46" height="42" rx="6" fill="#ffffff" stroke="#7c3aed" stroke-width="2"/>
    <line x1="320" y1="168" x2="346" y2="168" stroke="#7c3aed" stroke-width="2"/>
    <line x1="320" y1="180" x2="338" y2="180" stroke="#7c3aed" stroke-width="2"/>
    <path d="M364 175 L396 175" stroke="#7c3aed" stroke-width="3" marker-end="url(#arrow-purple)"/>
    <rect x="404" y="154" width="46" height="42" rx="6" fill="#ffffff" stroke="#7c3aed" stroke-width="2"/>
    <line x1="414" y1="168" x2="440" y2="168" stroke="#7c3aed" stroke-width="2"/>
    <line x1="414" y1="180" x2="432" y2="180" stroke="#7c3aed" stroke-width="2"/>
    <text x="373" y="232" text-anchor="middle" font-size="13" fill="#1f2937">schema plus rewrites</text>

    <rect x="512" y="96" width="190" height="162" rx="18" fill="#dcfce7" stroke="#16a34a" stroke-width="2"/>
    <text x="607" y="128" text-anchor="middle" font-size="18" font-weight="700" fill="#166534">Local exploration</text>
    <circle cx="607" cy="178" r="18" fill="#ffffff" stroke="#16a34a" stroke-width="2"/>
    <circle cx="566" cy="160" r="12" fill="#bbf7d0" stroke="#16a34a" stroke-width="2"/>
    <circle cx="648" cy="160" r="12" fill="#bbf7d0" stroke="#16a34a" stroke-width="2"/>
    <circle cx="566" cy="204" r="12" fill="#bbf7d0" stroke="#16a34a" stroke-width="2"/>
    <circle cx="648" cy="204" r="12" fill="#bbf7d0" stroke="#16a34a" stroke-width="2"/>
    <line x1="579" y1="165" x2="592" y2="171" stroke="#16a34a" stroke-width="2"/>
    <line x1="635" y1="171" x2="620" y2="171" stroke="#16a34a" stroke-width="2"/>
    <line x1="579" y1="199" x2="592" y2="187" stroke="#16a34a" stroke-width="2"/>
    <line x1="635" y1="187" x2="620" y2="187" stroke="#16a34a" stroke-width="2"/>
    <text x="607" y="232" text-anchor="middle" font-size="13" fill="#1f2937">frontier and neighborhood</text>

    <rect x="746" y="96" width="190" height="162" rx="18" fill="#fee2e2" stroke="#dc2626" stroke-width="2"/>
    <text x="841" y="128" text-anchor="middle" font-size="18" font-weight="700" fill="#991b1b">Alignment</text>
    <rect x="776" y="154" width="42" height="42" rx="6" fill="#ffffff" stroke="#dc2626" stroke-width="2"/>
    <line x1="786" y1="166" x2="808" y2="166" stroke="#dc2626" stroke-width="2"/>
    <line x1="786" y1="178" x2="804" y2="178" stroke="#dc2626" stroke-width="2"/>
    <path d="M824 175 L852 175" stroke="#dc2626" stroke-width="3" marker-end="url(#arrow-red)"/>
    <path d="M864 156 Q888 156 888 174 Q888 192 864 192 L850 192 Q860 182 860 174 Q860 166 850 156 Z" fill="#ffffff" stroke="#dc2626" stroke-width="2"/>
    <text x="841" y="232" text-anchor="middle" font-size="13" fill="#1f2937">aligned description</text>

    <path d="M234 176 L278 176" stroke="#475569" stroke-width="3" marker-end="url(#arrow)"/>
    <path d="M468 176 L512 176" stroke="#475569" stroke-width="3" marker-end="url(#arrow)"/>
    <path d="M702 176 L746 176" stroke="#475569" stroke-width="3" marker-end="url(#arrow)"/>
  </g>
  <defs>
    <marker id="arrow" markerWidth="10" markerHeight="10" refX="9" refY="5" orient="auto">
      <path d="M0,0 L10,5 L0,10 Z" fill="#475569"/>
    </marker>
    <marker id="arrow-purple" markerWidth="10" markerHeight="10" refX="9" refY="5" orient="auto">
      <path d="M0,0 L10,5 L0,10 Z" fill="#7c3aed"/>
    </marker>
    <marker id="arrow-red" markerWidth="10" markerHeight="10" refX="9" refY="5" orient="auto">
      <path d="M0,0 L10,5 L0,10 Z" fill="#dc2626"/>
    </marker>
  </defs>
</svg>