<?xml version="1.0" encoding="UTF-8"?>
<svg xmlns="http://www.w3.org/2000/svg" width="820" height="420" viewBox="0 0 820 420" role="img" aria-label="Experiment 5: Prefix-depth transfer on the expanded benchmark">
  <rect width="820" height="420" fill="#ffffff" />
  <g><rect x="608" y="32" width="14" height="14" fill="#6b7280" rx="2" /><text x="630" y="43" font-size="13" fill="#111827">Cue vote</text></g><g><rect x="608" y="60" width="14" height="14" fill="#0f766e" rx="2" /><text x="630" y="71" font-size="13" fill="#111827">Naive Bayes</text></g><g><rect x="608" y="88" width="14" height="14" fill="#7c3aed" rx="2" /><text x="630" y="99" font-size="13" fill="#111827">Frontier top</text></g><g><rect x="608" y="116" width="14" height="14" fill="#dc2626" rx="2" /><text x="630" y="127" font-size="13" fill="#111827">Truth retained</text></g>
  <line x1="62" y1="366" x2="590" y2="366" stroke="#e5e7eb" /><line x1="62" y1="298.4" x2="590" y2="298.4" stroke="#e5e7eb" /><line x1="62" y1="230.79999999999998" x2="590" y2="230.79999999999998" stroke="#e5e7eb" /><line x1="62" y1="163.19999999999996" x2="590" y2="163.19999999999996" stroke="#e5e7eb" /><line x1="62" y1="95.59999999999997" x2="590" y2="95.59999999999997" stroke="#e5e7eb" /><line x1="62" y1="28" x2="590" y2="28" stroke="#e5e7eb" />
  <line x1="62" y1="28" x2="62" y2="366" stroke="#111827" />
  <line x1="62" y1="366" x2="590" y2="366" stroke="#111827" />
  <g><line x1="62" y1="366" x2="62" y2="372" stroke="#111827" /><text x="62" y="402" text-anchor="middle" font-size="12" fill="#374151">1</text></g><g><line x1="238" y1="366" x2="238" y2="372" stroke="#111827" /><text x="238" y="402" text-anchor="middle" font-size="12" fill="#374151">2</text></g><g><line x1="414" y1="366" x2="414" y2="372" stroke="#111827" /><text x="414" y="402" text-anchor="middle" font-size="12" fill="#374151">3</text></g><g><line x1="590" y1="366" x2="590" y2="372" stroke="#111827" /><text x="590" y="402" text-anchor="middle" font-size="12" fill="#374151">4</text></g>
  <g><line x1="56" y1="366" x2="62" y2="366" stroke="#111827" /><text x="52" y="370" text-anchor="end" font-size="12" fill="#374151">0.0</text></g><g><line x1="56" y1="298.4" x2="62" y2="298.4" stroke="#111827" /><text x="52" y="302.4" text-anchor="end" font-size="12" fill="#374151">0.2</text></g><g><line x1="56" y1="230.79999999999998" x2="62" y2="230.79999999999998" stroke="#111827" /><text x="52" y="234.79999999999998" text-anchor="end" font-size="12" fill="#374151">0.4</text></g><g><line x1="56" y1="163.19999999999996" x2="62" y2="163.19999999999996" stroke="#111827" /><text x="52" y="167.19999999999996" text-anchor="end" font-size="12" fill="#374151">0.6</text></g><g><line x1="56" y1="95.59999999999997" x2="62" y2="95.59999999999997" stroke="#111827" /><text x="52" y="99.59999999999997" text-anchor="end" font-size="12" fill="#374151">0.8</text></g><g><line x1="56" y1="28" x2="62" y2="28" stroke="#111827" /><text x="52" y="32" text-anchor="end" font-size="12" fill="#374151">1.0</text></g>
  <path d="M 62.00 306.51 L 238.00 67.88 L 414.00 28.00 L 590.00 28.00" fill="none" stroke="#6b7280" stroke-width="3" /><circle cx="62.00" cy="306.51" r="4" fill="#6b7280" /><circle cx="238.00" cy="67.88" r="4" fill="#6b7280" /><circle cx="414.00" cy="28.00" r="4" fill="#6b7280" /><circle cx="590.00" cy="28.00" r="4" fill="#6b7280" /><path d="M 62.00 226.74 L 238.00 94.25 L 414.00 54.36 L 590.00 47.94" fill="none" stroke="#0f766e" stroke-width="3" /><circle cx="62.00" cy="226.74" r="4" fill="#0f766e" /><circle cx="238.00" cy="94.25" r="4" fill="#0f766e" /><circle cx="414.00" cy="54.36" r="4" fill="#0f766e" /><circle cx="590.00" cy="47.94" r="4" fill="#0f766e" /><path d="M 62.00 286.57 L 238.00 47.94 L 414.00 28.00 L 590.00 28.00" fill="none" stroke="#7c3aed" stroke-width="3" /><circle cx="62.00" cy="286.57" r="4" fill="#7c3aed" /><circle cx="238.00" cy="47.94" r="4" fill="#7c3aed" /><circle cx="414.00" cy="28.00" r="4" fill="#7c3aed" /><circle cx="590.00" cy="28.00" r="4" fill="#7c3aed" /><path d="M 62.00 127.37 L 238.00 28.00 L 414.00 28.00 L 590.00 28.00" fill="none" stroke="#dc2626" stroke-width="3" /><circle cx="62.00" cy="127.37" r="4" fill="#dc2626" /><circle cx="238.00" cy="28.00" r="4" fill="#dc2626" /><circle cx="414.00" cy="28.00" r="4" fill="#dc2626" /><circle cx="590.00" cy="28.00" r="4" fill="#dc2626" />
</svg>