<?xml version="1.0" encoding="UTF-8"?>
<svg xmlns="http://www.w3.org/2000/svg" width="820" height="420" viewBox="0 0 820 420" role="img" aria-label="Experiment 1: Mean frontier entropy by prefix">
  <rect width="820" height="420" fill="#ffffff" />
  <g><rect x="608" y="32" width="14" height="14" fill="#1d4ed8" rx="2" /><text x="630" y="43" font-size="13" fill="#111827">Coarse observer</text></g><g><rect x="608" y="60" width="14" height="14" fill="#dc2626" rx="2" /><text x="630" y="71" font-size="13" fill="#111827">Rich observer</text></g>
  <line x1="62" y1="366" x2="590" y2="366" stroke="#e5e7eb" /><line x1="62" y1="298.4" x2="590" y2="298.4" stroke="#e5e7eb" /><line x1="62" y1="230.8" x2="590" y2="230.8" stroke="#e5e7eb" /><line x1="62" y1="163.20000000000002" x2="590" y2="163.20000000000002" stroke="#e5e7eb" /><line x1="62" y1="95.60000000000002" x2="590" y2="95.60000000000002" stroke="#e5e7eb" /><line x1="62" y1="28" x2="590" y2="28" stroke="#e5e7eb" />
  <line x1="62" y1="28" x2="62" y2="366" stroke="#111827" />
  <line x1="62" y1="366" x2="590" y2="366" stroke="#111827" />
  <g><line x1="62" y1="366" x2="62" y2="372" stroke="#111827" /><text x="62" y="402" text-anchor="middle" font-size="12" fill="#374151">1</text></g><g><line x1="238" y1="366" x2="238" y2="372" stroke="#111827" /><text x="238" y="402" text-anchor="middle" font-size="12" fill="#374151">2</text></g><g><line x1="414" y1="366" x2="414" y2="372" stroke="#111827" /><text x="414" y="402" text-anchor="middle" font-size="12" fill="#374151">3</text></g><g><line x1="590" y1="366" x2="590" y2="372" stroke="#111827" /><text x="590" y="402" text-anchor="middle" font-size="12" fill="#374151">4</text></g>
  <g><line x1="56" y1="366" x2="62" y2="366" stroke="#111827" /><text x="52" y="370" text-anchor="end" font-size="12" fill="#374151">0.0</text></g><g><line x1="56" y1="298.4" x2="62" y2="298.4" stroke="#111827" /><text x="52" y="302.4" text-anchor="end" font-size="12" fill="#374151">0.3</text></g><g><line x1="56" y1="230.8" x2="62" y2="230.8" stroke="#111827" /><text x="52" y="234.8" text-anchor="end" font-size="12" fill="#374151">0.6</text></g><g><line x1="56" y1="163.20000000000002" x2="62" y2="163.20000000000002" stroke="#111827" /><text x="52" y="167.20000000000002" text-anchor="end" font-size="12" fill="#374151">1.0</text></g><g><line x1="56" y1="95.60000000000002" x2="62" y2="95.60000000000002" stroke="#111827" /><text x="52" y="99.60000000000002" text-anchor="end" font-size="12" fill="#374151">1.3</text></g><g><line x1="56" y1="28" x2="62" y2="28" stroke="#111827" /><text x="52" y="32" text-anchor="end" font-size="12" fill="#374151">1.6</text></g>
  <path d="M 62.00 100.88 L 238.00 102.99 L 414.00 336.85 L 590.00 366.00" fill="none" stroke="#1d4ed8" stroke-width="3" /><circle cx="62.00" cy="100.88" r="4" fill="#1d4ed8" /><circle cx="238.00" cy="102.99" r="4" fill="#1d4ed8" /><circle cx="414.00" cy="336.85" r="4" fill="#1d4ed8" /><circle cx="590.00" cy="366.00" r="4" fill="#1d4ed8" /><path d="M 62.00 130.25 L 238.00 293.33 L 414.00 351.42 L 590.00 366.00" fill="none" stroke="#dc2626" stroke-width="3" /><circle cx="62.00" cy="130.25" r="4" fill="#dc2626" /><circle cx="238.00" cy="293.33" r="4" fill="#dc2626" /><circle cx="414.00" cy="351.42" r="4" fill="#dc2626" /><circle cx="590.00" cy="366.00" r="4" fill="#dc2626" />
</svg>