<?xml version="1.0" encoding="UTF-8"?>
<svg xmlns="http://www.w3.org/2000/svg" width="820" height="420" viewBox="0 0 820 420" role="img" aria-label="Experiment 6: Novelty response by evidence depth">
  <rect width="820" height="420" fill="#ffffff" />
  <g><rect x="608" y="32" width="14" height="14" fill="#2563eb" rx="2" /><text x="630" y="43" font-size="13" fill="#111827">Open-set flag</text></g><g><rect x="608" y="60" width="14" height="14" fill="#dc2626" rx="2" /><text x="630" y="71" font-size="13" fill="#111827">False closure</text></g>
  <line x1="62" y1="366" x2="590" y2="366" stroke="#e5e7eb" /><line x1="62" y1="298.4" x2="590" y2="298.4" stroke="#e5e7eb" /><line x1="62" y1="230.79999999999998" x2="590" y2="230.79999999999998" stroke="#e5e7eb" /><line x1="62" y1="163.19999999999996" x2="590" y2="163.19999999999996" stroke="#e5e7eb" /><line x1="62" y1="95.59999999999997" x2="590" y2="95.59999999999997" stroke="#e5e7eb" /><line x1="62" y1="28" x2="590" y2="28" stroke="#e5e7eb" />
  <line x1="62" y1="28" x2="62" y2="366" stroke="#111827" />
  <line x1="62" y1="366" x2="590" y2="366" stroke="#111827" />
  <g><line x1="62" y1="366" x2="62" y2="372" stroke="#111827" /><text x="62" y="402" text-anchor="middle" font-size="12" fill="#374151">2</text></g><g><line x1="326" y1="366" x2="326" y2="372" stroke="#111827" /><text x="326" y="402" text-anchor="middle" font-size="12" fill="#374151">3</text></g><g><line x1="590" y1="366" x2="590" y2="372" stroke="#111827" /><text x="590" y="402" text-anchor="middle" font-size="12" fill="#374151">4</text></g>
  <g><line x1="56" y1="366" x2="62" y2="366" stroke="#111827" /><text x="52" y="370" text-anchor="end" font-size="12" fill="#374151">0.0</text></g><g><line x1="56" y1="298.4" x2="62" y2="298.4" stroke="#111827" /><text x="52" y="302.4" text-anchor="end" font-size="12" fill="#374151">0.2</text></g><g><line x1="56" y1="230.79999999999998" x2="62" y2="230.79999999999998" stroke="#111827" /><text x="52" y="234.79999999999998" text-anchor="end" font-size="12" fill="#374151">0.4</text></g><g><line x1="56" y1="163.19999999999996" x2="62" y2="163.19999999999996" stroke="#111827" /><text x="52" y="167.19999999999996" text-anchor="end" font-size="12" fill="#374151">0.6</text></g><g><line x1="56" y1="95.59999999999997" x2="62" y2="95.59999999999997" stroke="#111827" /><text x="52" y="99.59999999999997" text-anchor="end" font-size="12" fill="#374151">0.8</text></g><g><line x1="56" y1="28" x2="62" y2="28" stroke="#111827" /><text x="52" y="32" text-anchor="end" font-size="12" fill="#374151">1.0</text></g>
  <path d="M 62.00 52.00 L 326.00 245.33 L 590.00 293.67" fill="none" stroke="#2563eb" stroke-width="3" /><circle cx="62.00" cy="52.00" r="4" fill="#2563eb" /><circle cx="326.00" cy="245.33" r="4" fill="#2563eb" /><circle cx="590.00" cy="293.67" r="4" fill="#2563eb" /><path d="M 62.00 366.00 L 326.00 366.00 L 590.00 366.00" fill="none" stroke="#dc2626" stroke-width="3" /><circle cx="62.00" cy="366.00" r="4" fill="#dc2626" /><circle cx="326.00" cy="366.00" r="4" fill="#dc2626" /><circle cx="590.00" cy="366.00" r="4" fill="#dc2626" />
</svg>