<?xml version="1.0" encoding="UTF-8"?>
<svg xmlns="http://www.w3.org/2000/svg" width="820" height="420" viewBox="0 0 820 420" role="img" aria-label="Experiment 6: Open-set response versus in-domain behavior">
  <rect width="820" height="420" fill="#ffffff" />
  <g><rect x="608" y="32" width="14" height="14" fill="#2563eb" rx="2" /><text x="630" y="43" font-size="13" fill="#111827">Open-set flag</text></g><g><rect x="608" y="60" width="14" height="14" fill="#dc2626" rx="2" /><text x="630" y="71" font-size="13" fill="#111827">False closure</text></g><g><rect x="608" y="88" width="14" height="14" fill="#7c3aed" rx="2" /><text x="630" y="99" font-size="13" fill="#111827">Question availability</text></g>
  <line x1="62" y1="366" x2="590" y2="366" stroke="#e5e7eb" /><line x1="62" y1="298.4" x2="590" y2="298.4" stroke="#e5e7eb" /><line x1="62" y1="230.79999999999998" x2="590" y2="230.79999999999998" stroke="#e5e7eb" /><line x1="62" y1="163.19999999999996" x2="590" y2="163.19999999999996" stroke="#e5e7eb" /><line x1="62" y1="95.59999999999997" x2="590" y2="95.59999999999997" stroke="#e5e7eb" /><line x1="62" y1="28" x2="590" y2="28" stroke="#e5e7eb" />
  <line x1="62" y1="28" x2="62" y2="366" stroke="#111827" />
  <line x1="62" y1="366" x2="590" y2="366" stroke="#111827" />
  <g><line x1="56" y1="366" x2="62" y2="366" stroke="#111827" /><text x="52" y="370" text-anchor="end" font-size="12" fill="#374151">0.0</text></g><g><line x1="56" y1="298.4" x2="62" y2="298.4" stroke="#111827" /><text x="52" y="302.4" text-anchor="end" font-size="12" fill="#374151">0.2</text></g><g><line x1="56" y1="230.79999999999998" x2="62" y2="230.79999999999998" stroke="#111827" /><text x="52" y="234.79999999999998" text-anchor="end" font-size="12" fill="#374151">0.4</text></g><g><line x1="56" y1="163.19999999999996" x2="62" y2="163.19999999999996" stroke="#111827" /><text x="52" y="167.19999999999996" text-anchor="end" font-size="12" fill="#374151">0.6</text></g><g><line x1="56" y1="95.59999999999997" x2="62" y2="95.59999999999997" stroke="#111827" /><text x="52" y="99.59999999999997" text-anchor="end" font-size="12" fill="#374151">0.8</text></g><g><line x1="56" y1="28" x2="62" y2="28" stroke="#111827" /><text x="52" y="32" text-anchor="end" font-size="12" fill="#374151">1.0</text></g>
  <g><rect x="83.12" y="225.054" width="40" height="140.946" fill="#2563eb" rx="3" /><text x="103.12" y="219.054" text-anchor="middle" font-size="11" fill="#374151">0.42</text></g><g><rect x="131.12" y="366" width="40" height="0" fill="#dc2626" rx="3" /><text x="151.12" y="360" text-anchor="middle" font-size="11" fill="#374151">0.00</text></g><g><rect x="179.12" y="225.054" width="40" height="140.946" fill="#7c3aed" rx="3" /><text x="199.12" y="219.054" text-anchor="middle" font-size="11" fill="#374151">0.42</text></g><text x="151.12" y="402" text-anchor="middle" font-size="12" fill="#374151">hybrid</text><g><rect x="259.12" y="348.424" width="40" height="17.576" fill="#2563eb" rx="3" /><text x="279.12" y="342.424" text-anchor="middle" font-size="11" fill="#374151">0.05</text></g><g><rect x="307.12" y="366" width="40" height="0" fill="#dc2626" rx="3" /><text x="327.12" y="360" text-anchor="middle" font-size="11" fill="#374151">0.00</text></g><g><rect x="355.12" y="348.424" width="40" height="17.576" fill="#7c3aed" rx="3" /><text x="375.12" y="342.424" text-anchor="middle" font-size="11" fill="#374151">0.05</text></g><text x="327.12" y="402" text-anchor="middle" font-size="12" fill="#374151">in-domain</text><g><rect x="435.12" y="185.846" width="40" height="180.154" fill="#2563eb" rx="3" /><text x="455.12" y="179.846" text-anchor="middle" font-size="11" fill="#374151">0.53</text></g><g><rect x="483.12" y="366" width="40" height="0" fill="#dc2626" rx="3" /><text x="503.12" y="360" text-anchor="middle" font-size="11" fill="#374151">0.00</text></g><g><rect x="531.12" y="185.846" width="40" height="180.154" fill="#7c3aed" rx="3" /><text x="551.12" y="179.846" text-anchor="middle" font-size="11" fill="#374151">0.53</text></g><text x="503.12" y="402" text-anchor="middle" font-size="12" fill="#374151">open-set</text>
</svg>