<?xml version="1.0" encoding="UTF-8"?>
<svg xmlns="http://www.w3.org/2000/svg" width="820" height="420" viewBox="0 0 820 420" role="img" aria-label="Experiment 2: Accuracy before and after questioning">
  <rect width="820" height="420" fill="#ffffff" />
  <g><rect x="608" y="32" width="14" height="14" fill="#7c3aed" rx="2" /><text x="630" y="43" font-size="13" fill="#111827">Before question</text></g><g><rect x="608" y="60" width="14" height="14" fill="#059669" rx="2" /><text x="630" y="71" font-size="13" fill="#111827">After question</text></g>
  <line x1="62" y1="366" x2="590" y2="366" stroke="#e5e7eb" /><line x1="62" y1="298.4" x2="590" y2="298.4" stroke="#e5e7eb" /><line x1="62" y1="230.79999999999998" x2="590" y2="230.79999999999998" stroke="#e5e7eb" /><line x1="62" y1="163.19999999999996" x2="590" y2="163.19999999999996" stroke="#e5e7eb" /><line x1="62" y1="95.59999999999997" x2="590" y2="95.59999999999997" stroke="#e5e7eb" /><line x1="62" y1="28" x2="590" y2="28" stroke="#e5e7eb" />
  <line x1="62" y1="28" x2="62" y2="366" stroke="#111827" />
  <line x1="62" y1="366" x2="590" y2="366" stroke="#111827" />
  <g><line x1="56" y1="366" x2="62" y2="366" stroke="#111827" /><text x="52" y="370" text-anchor="end" font-size="12" fill="#374151">0.0</text></g><g><line x1="56" y1="298.4" x2="62" y2="298.4" stroke="#111827" /><text x="52" y="302.4" text-anchor="end" font-size="12" fill="#374151">0.2</text></g><g><line x1="56" y1="230.79999999999998" x2="62" y2="230.79999999999998" stroke="#111827" /><text x="52" y="234.79999999999998" text-anchor="end" font-size="12" fill="#374151">0.4</text></g><g><line x1="56" y1="163.19999999999996" x2="62" y2="163.19999999999996" stroke="#111827" /><text x="52" y="167.19999999999996" text-anchor="end" font-size="12" fill="#374151">0.6</text></g><g><line x1="56" y1="95.59999999999997" x2="62" y2="95.59999999999997" stroke="#111827" /><text x="52" y="99.59999999999997" text-anchor="end" font-size="12" fill="#374151">0.8</text></g><g><line x1="56" y1="28" x2="62" y2="28" stroke="#111827" /><text x="52" y="32" text-anchor="end" font-size="12" fill="#374151">1.0</text></g>
  <g><rect x="93.68" y="248.376" width="40" height="117.624" fill="#7c3aed" rx="3" /><text x="113.68" y="242.376" text-anchor="middle" font-size="11" fill="#374151">0.35</text></g><g><rect x="141.68" y="145.624" width="40" height="220.376" fill="#059669" rx="3" /><text x="161.68" y="139.624" text-anchor="middle" font-size="11" fill="#374151">0.65</text></g><text x="137.68" y="402" text-anchor="middle" font-size="12" fill="#374151">Prefix 2</text><g><rect x="357.68" y="140.55399999999997" width="40" height="225.44600000000003" fill="#7c3aed" rx="3" /><text x="377.68" y="134.55399999999997" text-anchor="middle" font-size="11" fill="#374151">0.67</text></g><g><rect x="405.68" y="28" width="40" height="338" fill="#059669" rx="3" /><text x="425.68" y="22" text-anchor="middle" font-size="11" fill="#374151">1.00</text></g><text x="401.68" y="402" text-anchor="middle" font-size="12" fill="#374151">Prefix 3</text>
</svg>