<?xml version="1.0" encoding="UTF-8"?>
<svg xmlns="http://www.w3.org/2000/svg" width="820" height="420" viewBox="0 0 820 420" role="img" aria-label="Experiment 5: Accuracy across benchmark strata">
  <rect width="820" height="420" fill="#ffffff" />
  <g><rect x="608" y="32" width="14" height="14" fill="#6b7280" rx="2" /><text x="630" y="43" font-size="13" fill="#111827">Cue vote</text></g><g><rect x="608" y="60" width="14" height="14" fill="#0f766e" rx="2" /><text x="630" y="71" font-size="13" fill="#111827">Naive Bayes</text></g><g><rect x="608" y="88" width="14" height="14" fill="#7c3aed" rx="2" /><text x="630" y="99" font-size="13" fill="#111827">Frontier top</text></g><g><rect x="608" y="116" width="14" height="14" fill="#dc2626" rx="2" /><text x="630" y="127" font-size="13" fill="#111827">Truth retained</text></g>
  <line x1="62" y1="366" x2="590" y2="366" stroke="#e5e7eb" /><line x1="62" y1="298.4" x2="590" y2="298.4" stroke="#e5e7eb" /><line x1="62" y1="230.79999999999998" x2="590" y2="230.79999999999998" stroke="#e5e7eb" /><line x1="62" y1="163.19999999999996" x2="590" y2="163.19999999999996" stroke="#e5e7eb" /><line x1="62" y1="95.59999999999997" x2="590" y2="95.59999999999997" stroke="#e5e7eb" /><line x1="62" y1="28" x2="590" y2="28" stroke="#e5e7eb" />
  <line x1="62" y1="28" x2="62" y2="366" stroke="#111827" />
  <line x1="62" y1="366" x2="590" y2="366" stroke="#111827" />
  <g><line x1="56" y1="366" x2="62" y2="366" stroke="#111827" /><text x="52" y="370" text-anchor="end" font-size="12" fill="#374151">0.0</text></g><g><line x1="56" y1="298.4" x2="62" y2="298.4" stroke="#111827" /><text x="52" y="302.4" text-anchor="end" font-size="12" fill="#374151">0.2</text></g><g><line x1="56" y1="230.79999999999998" x2="62" y2="230.79999999999998" stroke="#111827" /><text x="52" y="234.79999999999998" text-anchor="end" font-size="12" fill="#374151">0.4</text></g><g><line x1="56" y1="163.19999999999996" x2="62" y2="163.19999999999996" stroke="#111827" /><text x="52" y="167.19999999999996" text-anchor="end" font-size="12" fill="#374151">0.6</text></g><g><line x1="56" y1="95.59999999999997" x2="62" y2="95.59999999999997" stroke="#111827" /><text x="52" y="99.59999999999997" text-anchor="end" font-size="12" fill="#374151">0.8</text></g><g><line x1="56" y1="28" x2="62" y2="28" stroke="#111827" /><text x="52" y="32" text-anchor="end" font-size="12" fill="#374151">1.0</text></g>
  <g><rect x="83.12" y="107.43" width="33" height="258.57" fill="#6b7280" rx="3" /><text x="99.62" y="101.43" text-anchor="middle" font-size="11" fill="#374151">0.77</text></g><g><rect x="124.12" y="107.43" width="33" height="258.57" fill="#0f766e" rx="3" /><text x="140.62" y="101.43" text-anchor="middle" font-size="11" fill="#374151">0.77</text></g><g><rect x="165.12" y="97.62799999999999" width="33" height="268.372" fill="#7c3aed" rx="3" /><text x="181.62" y="91.62799999999999" text-anchor="middle" font-size="11" fill="#374151">0.79</text></g><g><rect x="206.12" y="47.94200000000001" width="33" height="318.058" fill="#dc2626" rx="3" /><text x="222.62" y="41.94200000000001" text-anchor="middle" font-size="11" fill="#374151">0.94</text></g><text x="161.12" y="402" text-anchor="middle" font-size="12" fill="#374151">controlled</text><g><rect x="259.12" y="107.43" width="33" height="258.57" fill="#6b7280" rx="3" /><text x="275.62" y="101.43" text-anchor="middle" font-size="11" fill="#374151">0.77</text></g><g><rect x="300.12" y="107.43" width="33" height="258.57" fill="#0f766e" rx="3" /><text x="316.62" y="101.43" text-anchor="middle" font-size="11" fill="#374151">0.77</text></g><g><rect x="341.12" y="97.62799999999999" width="33" height="268.372" fill="#7c3aed" rx="3" /><text x="357.62" y="91.62799999999999" text-anchor="middle" font-size="11" fill="#374151">0.79</text></g><g><rect x="382.12" y="53.012" width="33" height="312.988" fill="#dc2626" rx="3" /><text x="398.62" y="47.012" text-anchor="middle" font-size="11" fill="#374151">0.93</text></g><text x="337.12" y="402" text-anchor="middle" font-size="12" fill="#374151">noisy</text><g><rect x="435.12" y="107.43" width="33" height="258.57" fill="#6b7280" rx="3" /><text x="451.62" y="101.43" text-anchor="middle" font-size="11" fill="#374151">0.77</text></g><g><rect x="476.12" y="102.69799999999998" width="33" height="263.302" fill="#0f766e" rx="3" /><text x="492.62" y="96.69799999999998" text-anchor="middle" font-size="11" fill="#374151">0.78</text></g><g><rect x="517.12" y="97.62799999999999" width="33" height="268.372" fill="#7c3aed" rx="3" /><text x="533.62" y="91.62799999999999" text-anchor="middle" font-size="11" fill="#374151">0.79</text></g><g><rect x="558.12" y="57.74399999999997" width="33" height="308.25600000000003" fill="#dc2626" rx="3" /><text x="574.62" y="51.74399999999997" text-anchor="middle" font-size="11" fill="#374151">0.91</text></g><text x="513.12" y="402" text-anchor="middle" font-size="12" fill="#374151">paraphrased</text>
</svg>