<?xml version="1.0" encoding="UTF-8"?>
<svg xmlns="http://www.w3.org/2000/svg" width="820" height="420" viewBox="0 0 820 420" role="img" aria-label="Experiment 7: Entropy reduction versus question budget under adverse evidence">
  <rect width="820" height="420" fill="#ffffff" />
  <g><rect x="608" y="32" width="14" height="14" fill="#2563eb" rx="2" /><text x="630" y="43" font-size="13" fill="#111827">information-gain</text></g><g><rect x="608" y="60" width="14" height="14" fill="#7c3aed" rx="2" /><text x="630" y="71" font-size="13" fill="#111827">top-domain</text></g><g><rect x="608" y="88" width="14" height="14" fill="#6b7280" rx="2" /><text x="630" y="99" font-size="13" fill="#111827">random</text></g>
  <line x1="62" y1="366" x2="590" y2="366" stroke="#e5e7eb" /><line x1="62" y1="298.4" x2="590" y2="298.4" stroke="#e5e7eb" /><line x1="62" y1="230.8" x2="590" y2="230.8" stroke="#e5e7eb" /><line x1="62" y1="163.20000000000002" x2="590" y2="163.20000000000002" stroke="#e5e7eb" /><line x1="62" y1="95.60000000000002" x2="590" y2="95.60000000000002" stroke="#e5e7eb" /><line x1="62" y1="28" x2="590" y2="28" stroke="#e5e7eb" />
  <line x1="62" y1="28" x2="62" y2="366" stroke="#111827" />
  <line x1="62" y1="366" x2="590" y2="366" stroke="#111827" />
  <g><line x1="62" y1="366" x2="62" y2="372" stroke="#111827" /><text x="62" y="402" text-anchor="middle" font-size="12" fill="#374151">0</text></g><g><line x1="238" y1="366" x2="238" y2="372" stroke="#111827" /><text x="238" y="402" text-anchor="middle" font-size="12" fill="#374151">1</text></g><g><line x1="414" y1="366" x2="414" y2="372" stroke="#111827" /><text x="414" y="402" text-anchor="middle" font-size="12" fill="#374151">2</text></g><g><line x1="590" y1="366" x2="590" y2="372" stroke="#111827" /><text x="590" y="402" text-anchor="middle" font-size="12" fill="#374151">3</text></g>
  <g><line x1="56" y1="366" x2="62" y2="366" stroke="#111827" /><text x="52" y="370" text-anchor="end" font-size="12" fill="#374151">0.0</text></g><g><line x1="56" y1="298.4" x2="62" y2="298.4" stroke="#111827" /><text x="52" y="302.4" text-anchor="end" font-size="12" fill="#374151">0.3</text></g><g><line x1="56" y1="230.8" x2="62" y2="230.8" stroke="#111827" /><text x="52" y="234.8" text-anchor="end" font-size="12" fill="#374151">0.6</text></g><g><line x1="56" y1="163.20000000000002" x2="62" y2="163.20000000000002" stroke="#111827" /><text x="52" y="167.20000000000002" text-anchor="end" font-size="12" fill="#374151">0.9</text></g><g><line x1="56" y1="95.60000000000002" x2="62" y2="95.60000000000002" stroke="#111827" /><text x="52" y="99.60000000000002" text-anchor="end" font-size="12" fill="#374151">1.2</text></g><g><line x1="56" y1="28" x2="62" y2="28" stroke="#111827" /><text x="52" y="32" text-anchor="end" font-size="12" fill="#374151">1.5</text></g>
  <path d="M 62.00 116.56 L 238.00 293.89 L 414.00 298.40 L 590.00 298.40" fill="none" stroke="#2563eb" stroke-width="3" /><circle cx="62.00" cy="116.56" r="4" fill="#2563eb" /><circle cx="238.00" cy="293.89" r="4" fill="#2563eb" /><circle cx="414.00" cy="298.40" r="4" fill="#2563eb" /><circle cx="590.00" cy="298.40" r="4" fill="#2563eb" /><path d="M 62.00 116.56 L 238.00 293.89 L 414.00 298.40 L 590.00 298.40" fill="none" stroke="#7c3aed" stroke-width="3" /><circle cx="62.00" cy="116.56" r="4" fill="#7c3aed" /><circle cx="238.00" cy="293.89" r="4" fill="#7c3aed" /><circle cx="414.00" cy="298.40" r="4" fill="#7c3aed" /><circle cx="590.00" cy="298.40" r="4" fill="#7c3aed" /><path d="M 62.00 116.56 L 238.00 259.42 L 414.00 277.67 L 590.00 281.27" fill="none" stroke="#6b7280" stroke-width="3" /><circle cx="62.00" cy="116.56" r="4" fill="#6b7280" /><circle cx="238.00" cy="259.42" r="4" fill="#6b7280" /><circle cx="414.00" cy="277.67" r="4" fill="#6b7280" /><circle cx="590.00" cy="281.27" r="4" fill="#6b7280" />
</svg>