<?xml version="1.0" encoding="UTF-8"?>
<svg xmlns="http://www.w3.org/2000/svg" width="820" height="420" viewBox="0 0 820 420" role="img" aria-label="Experiment 2: Entropy before and after questioning">
  <rect width="820" height="420" fill="#ffffff" />
  <g><rect x="608" y="32" width="14" height="14" fill="#7c3aed" rx="2" /><text x="630" y="43" font-size="13" fill="#111827">Before question</text></g><g><rect x="608" y="60" width="14" height="14" fill="#059669" rx="2" /><text x="630" y="71" font-size="13" fill="#111827">After question</text></g>
  <line x1="62" y1="366" x2="590" y2="366" stroke="#e5e7eb" /><line x1="62" y1="298.4" x2="590" y2="298.4" stroke="#e5e7eb" /><line x1="62" y1="230.8" x2="590" y2="230.8" stroke="#e5e7eb" /><line x1="62" y1="163.20000000000002" x2="590" y2="163.20000000000002" stroke="#e5e7eb" /><line x1="62" y1="95.60000000000002" x2="590" y2="95.60000000000002" stroke="#e5e7eb" /><line x1="62" y1="28" x2="590" y2="28" stroke="#e5e7eb" />
  <line x1="62" y1="28" x2="62" y2="366" stroke="#111827" />
  <line x1="62" y1="366" x2="590" y2="366" stroke="#111827" />
  <g><line x1="56" y1="366" x2="62" y2="366" stroke="#111827" /><text x="52" y="370" text-anchor="end" font-size="12" fill="#374151">0.0</text></g><g><line x1="56" y1="298.4" x2="62" y2="298.4" stroke="#111827" /><text x="52" y="302.4" text-anchor="end" font-size="12" fill="#374151">0.3</text></g><g><line x1="56" y1="230.8" x2="62" y2="230.8" stroke="#111827" /><text x="52" y="234.8" text-anchor="end" font-size="12" fill="#374151">0.6</text></g><g><line x1="56" y1="163.20000000000002" x2="62" y2="163.20000000000002" stroke="#111827" /><text x="52" y="167.20000000000002" text-anchor="end" font-size="12" fill="#374151">1.0</text></g><g><line x1="56" y1="95.60000000000002" x2="62" y2="95.60000000000002" stroke="#111827" /><text x="52" y="99.60000000000002" text-anchor="end" font-size="12" fill="#374151">1.3</text></g><g><line x1="56" y1="28" x2="62" y2="28" stroke="#111827" /><text x="52" y="32" text-anchor="end" font-size="12" fill="#374151">1.6</text></g>
  <g><rect x="93.68" y="103.20499999999998" width="40" height="262.795" fill="#7c3aed" rx="3" /><text x="113.68" y="97.20499999999998" text-anchor="middle" font-size="11" fill="#374151">1.24</text></g><g><rect x="141.68" y="228.26500000000001" width="40" height="137.73499999999999" fill="#059669" rx="3" /><text x="161.68" y="222.26500000000001" text-anchor="middle" font-size="11" fill="#374151">0.65</text></g><text x="137.68" y="402" text-anchor="middle" font-size="12" fill="#374151">Prefix 2</text><g><rect x="357.68" y="104.26124999999996" width="40" height="261.73875000000004" fill="#7c3aed" rx="3" /><text x="377.68" y="98.26124999999996" text-anchor="middle" font-size="11" fill="#374151">1.24</text></g><g><rect x="405.68" y="295.65375" width="40" height="70.34625" fill="#059669" rx="3" /><text x="425.68" y="289.65375" text-anchor="middle" font-size="11" fill="#374151">0.33</text></g><text x="401.68" y="402" text-anchor="middle" font-size="12" fill="#374151">Prefix 3</text>
</svg>