<?xml version="1.0" encoding="UTF-8"?>
<svg xmlns="http://www.w3.org/2000/svg" width="820" height="420" viewBox="0 0 820 420" role="img" aria-label="Experiment 4: Structural ablations on the expanded benchmark">
  <rect width="820" height="420" fill="#ffffff" />
  <g><rect x="608" y="32" width="14" height="14" fill="#2563eb" rx="2" /><text x="630" y="43" font-size="13" fill="#111827">Accuracy</text></g><g><rect x="608" y="60" width="14" height="14" fill="#dc2626" rx="2" /><text x="630" y="71" font-size="13" fill="#111827">Truth retained</text></g><g><rect x="608" y="88" width="14" height="14" fill="#6b7280" rx="2" /><text x="630" y="99" font-size="13" fill="#111827">Premature collapse</text></g>
  <line x1="62" y1="366" x2="590" y2="366" stroke="#e5e7eb" /><line x1="62" y1="298.4" x2="590" y2="298.4" stroke="#e5e7eb" /><line x1="62" y1="230.79999999999998" x2="590" y2="230.79999999999998" stroke="#e5e7eb" /><line x1="62" y1="163.19999999999996" x2="590" y2="163.19999999999996" stroke="#e5e7eb" /><line x1="62" y1="95.59999999999997" x2="590" y2="95.59999999999997" stroke="#e5e7eb" /><line x1="62" y1="28" x2="590" y2="28" stroke="#e5e7eb" />
  <line x1="62" y1="28" x2="62" y2="366" stroke="#111827" />
  <line x1="62" y1="366" x2="590" y2="366" stroke="#111827" />
  <g><line x1="56" y1="366" x2="62" y2="366" stroke="#111827" /><text x="52" y="370" text-anchor="end" font-size="12" fill="#374151">0.0</text></g><g><line x1="56" y1="298.4" x2="62" y2="298.4" stroke="#111827" /><text x="52" y="302.4" text-anchor="end" font-size="12" fill="#374151">0.2</text></g><g><line x1="56" y1="230.79999999999998" x2="62" y2="230.79999999999998" stroke="#111827" /><text x="52" y="234.79999999999998" text-anchor="end" font-size="12" fill="#374151">0.4</text></g><g><line x1="56" y1="163.19999999999996" x2="62" y2="163.19999999999996" stroke="#111827" /><text x="52" y="167.19999999999996" text-anchor="end" font-size="12" fill="#374151">0.6</text></g><g><line x1="56" y1="95.59999999999997" x2="62" y2="95.59999999999997" stroke="#111827" /><text x="52" y="99.59999999999997" text-anchor="end" font-size="12" fill="#374151">0.8</text></g><g><line x1="56" y1="28" x2="62" y2="28" stroke="#111827" /><text x="52" y="32" text-anchor="end" font-size="12" fill="#374151">1.0</text></g>
  <g><rect x="69.03999999999999" y="34.75999999999999" width="14.666666666666666" height="331.24" fill="#2563eb" rx="3" /><text x="76.37333333333332" y="28.75999999999999" text-anchor="middle" font-size="11" fill="#374151">0.98</text></g><g><rect x="91.70666666666665" y="28" width="14.666666666666666" height="338" fill="#dc2626" rx="3" /><text x="99.03999999999998" y="22" text-anchor="middle" font-size="11" fill="#374151">1.00</text></g><g><rect x="114.37333333333332" y="366" width="14.666666666666666" height="0" fill="#6b7280" rx="3" /><text x="121.70666666666665" y="360" text-anchor="middle" font-size="11" fill="#374151">0.00</text></g><text x="99.03999999999999" y="402" text-anchor="middle" font-size="12" fill="#374151">Baseline</text><g><rect x="127.70666666666665" y="158.468" width="14.666666666666666" height="207.532" fill="#2563eb" rx="3" /><text x="135.04" y="152.468" text-anchor="middle" font-size="11" fill="#374151">0.61</text></g><g><rect x="150.3733333333333" y="54.363999999999976" width="14.666666666666666" height="311.636" fill="#dc2626" rx="3" /><text x="157.70666666666665" y="48.363999999999976" text-anchor="middle" font-size="11" fill="#374151">0.92</text></g><g><rect x="173.03999999999996" y="366" width="14.666666666666666" height="0" fill="#6b7280" rx="3" /><text x="180.3733333333333" y="360" text-anchor="middle" font-size="11" fill="#374151">0.00</text></g><text x="157.70666666666665" y="402" text-anchor="middle" font-size="12" fill="#374151">Coarse obs.</text><g><rect x="186.3733333333333" y="34.75999999999999" width="14.666666666666666" height="331.24" fill="#2563eb" rx="3" /><text x="193.70666666666665" y="28.75999999999999" text-anchor="middle" font-size="11" fill="#374151">0.98</text></g><g><rect x="209.03999999999996" y="28" width="14.666666666666666" height="338" fill="#dc2626" rx="3" /><text x="216.3733333333333" y="22" text-anchor="middle" font-size="11" fill="#374151">1.00</text></g><g><rect x="231.70666666666665" y="366" width="14.666666666666666" height="0" fill="#6b7280" rx="3" /><text x="239.04" y="360" text-anchor="middle" font-size="11" fill="#374151">0.00</text></g><text x="216.3733333333333" y="402" text-anchor="middle" font-size="12" fill="#374151">No inferred</text><g><rect x="245.04" y="34.75999999999999" width="14.666666666666666" height="331.24" fill="#2563eb" rx="3" /><text x="252.37333333333333" y="28.75999999999999" text-anchor="middle" font-size="11" fill="#374151">0.98</text></g><g><rect x="267.70666666666665" y="34.75999999999999" width="14.666666666666666" height="331.24" fill="#dc2626" rx="3" /><text x="275.03999999999996" y="28.75999999999999" text-anchor="middle" font-size="11" fill="#374151">0.98</text></g><g><rect x="290.37333333333333" y="359.24" width="14.666666666666666" height="6.76" fill="#6b7280" rx="3" /><text x="297.70666666666665" y="353.24" text-anchor="middle" font-size="11" fill="#374151">0.02</text></g><text x="275.03999999999996" y="402" text-anchor="middle" font-size="12" fill="#374151">Frontier 4</text><g><rect x="303.70666666666665" y="34.75999999999999" width="14.666666666666666" height="331.24" fill="#2563eb" rx="3" /><text x="311.03999999999996" y="28.75999999999999" text-anchor="middle" font-size="11" fill="#374151">0.98</text></g><g><rect x="326.37333333333333" y="28" width="14.666666666666666" height="338" fill="#dc2626" rx="3" /><text x="333.70666666666665" y="22" text-anchor="middle" font-size="11" fill="#374151">1.00</text></g><g><rect x="349.03999999999996" y="366" width="14.666666666666666" height="0" fill="#6b7280" rx="3" /><text x="356.3733333333333" y="360" text-anchor="middle" font-size="11" fill="#374151">0.00</text></g><text x="333.70666666666665" y="402" text-anchor="middle" font-size="12" fill="#374151">Frontier 12</text><g><rect x="362.37333333333333" y="34.75999999999999" width="14.666666666666666" height="331.24" fill="#2563eb" rx="3" /><text x="369.70666666666665" y="28.75999999999999" text-anchor="middle" font-size="11" fill="#374151">0.98</text></g><g><rect x="385.04" y="34.75999999999999" width="14.666666666666666" height="331.24" fill="#dc2626" rx="3" /><text x="392.37333333333333" y="28.75999999999999" text-anchor="middle" font-size="11" fill="#374151">0.98</text></g><g><rect x="407.70666666666665" y="359.24" width="14.666666666666666" height="6.76" fill="#6b7280" rx="3" /><text x="415.03999999999996" y="353.24" text-anchor="middle" font-size="11" fill="#374151">0.02</text></g><text x="392.37333333333333" y="402" text-anchor="middle" font-size="12" fill="#374151">No rescue</text><g><rect x="421.04" y="34.75999999999999" width="14.666666666666666" height="331.24" fill="#2563eb" rx="3" /><text x="428.37333333333333" y="28.75999999999999" text-anchor="middle" font-size="11" fill="#374151">0.98</text></g><g><rect x="443.7066666666667" y="28" width="14.666666666666666" height="338" fill="#dc2626" rx="3" /><text x="451.04" y="22" text-anchor="middle" font-size="11" fill="#374151">1.00</text></g><g><rect x="466.37333333333333" y="366" width="14.666666666666666" height="0" fill="#6b7280" rx="3" /><text x="473.70666666666665" y="360" text-anchor="middle" font-size="11" fill="#374151">0.00</text></g><text x="451.04" y="402" text-anchor="middle" font-size="12" fill="#374151">No equivalence</text><g><rect x="479.70666666666665" y="34.75999999999999" width="14.666666666666666" height="331.24" fill="#2563eb" rx="3" /><text x="487.03999999999996" y="28.75999999999999" text-anchor="middle" font-size="11" fill="#374151">0.98</text></g><g><rect x="502.37333333333333" y="28" width="14.666666666666666" height="338" fill="#dc2626" rx="3" /><text x="509.70666666666665" y="22" text-anchor="middle" font-size="11" fill="#374151">1.00</text></g><g><rect x="525.04" y="366" width="14.666666666666666" height="0" fill="#6b7280" rx="3" /><text x="532.3733333333333" y="360" text-anchor="middle" font-size="11" fill="#374151">0.00</text></g><text x="509.70666666666665" y="402" text-anchor="middle" font-size="12" fill="#374151">No alignment</text><g><rect x="538.3733333333332" y="34.75999999999999" width="14.666666666666666" height="331.24" fill="#2563eb" rx="3" /><text x="545.7066666666666" y="28.75999999999999" text-anchor="middle" font-size="11" fill="#374151">0.98</text></g><g><rect x="561.0399999999998" y="28" width="14.666666666666666" height="338" fill="#dc2626" rx="3" /><text x="568.3733333333332" y="22" text-anchor="middle" font-size="11" fill="#374151">1.00</text></g><g><rect x="583.7066666666666" y="366" width="14.666666666666666" height="0" fill="#6b7280" rx="3" /><text x="591.04" y="360" text-anchor="middle" font-size="11" fill="#374151">0.00</text></g><text x="568.3733333333332" y="402" text-anchor="middle" font-size="12" fill="#374151">No questions</text>
</svg>