<?xml version="1.0" encoding="UTF-8"?>
<svg xmlns="http://www.w3.org/2000/svg" width="820" height="420" viewBox="0 0 820 420" role="img" aria-label="Experiment 4: Stability across sampled policy configurations">
  <rect width="820" height="420" fill="#ffffff" />
  <g><rect x="608" y="32" width="14" height="14" fill="#2563eb" rx="2" /><text x="630" y="43" font-size="13" fill="#111827">Accuracy</text></g><g><rect x="608" y="60" width="14" height="14" fill="#dc2626" rx="2" /><text x="630" y="71" font-size="13" fill="#111827">Truth retained</text></g><g><rect x="608" y="88" width="14" height="14" fill="#7c3aed" rx="2" /><text x="630" y="99" font-size="13" fill="#111827">Agreement with baseline</text></g>
  <line x1="62" y1="366" x2="590" y2="366" stroke="#e5e7eb" /><line x1="62" y1="298.4" x2="590" y2="298.4" stroke="#e5e7eb" /><line x1="62" y1="230.79999999999998" x2="590" y2="230.79999999999998" stroke="#e5e7eb" /><line x1="62" y1="163.19999999999996" x2="590" y2="163.19999999999996" stroke="#e5e7eb" /><line x1="62" y1="95.59999999999997" x2="590" y2="95.59999999999997" stroke="#e5e7eb" /><line x1="62" y1="28" x2="590" y2="28" stroke="#e5e7eb" />
  <line x1="62" y1="28" x2="62" y2="366" stroke="#111827" />
  <line x1="62" y1="366" x2="590" y2="366" stroke="#111827" />
  <g><line x1="62" y1="366" x2="62" y2="372" stroke="#111827" /><text x="62" y="402" text-anchor="middle" font-size="12" fill="#374151">1</text></g><g><line x1="84.95652173913044" y1="366" x2="84.95652173913044" y2="372" stroke="#111827" /><text x="84.95652173913044" y="402" text-anchor="middle" font-size="12" fill="#374151">2</text></g><g><line x1="107.91304347826087" y1="366" x2="107.91304347826087" y2="372" stroke="#111827" /><text x="107.91304347826087" y="402" text-anchor="middle" font-size="12" fill="#374151">3</text></g><g><line x1="130.8695652173913" y1="366" x2="130.8695652173913" y2="372" stroke="#111827" /><text x="130.8695652173913" y="402" text-anchor="middle" font-size="12" fill="#374151">4</text></g><g><line x1="153.82608695652175" y1="366" x2="153.82608695652175" y2="372" stroke="#111827" /><text x="153.82608695652175" y="402" text-anchor="middle" font-size="12" fill="#374151">5</text></g><g><line x1="176.7826086956522" y1="366" x2="176.7826086956522" y2="372" stroke="#111827" /><text x="176.7826086956522" y="402" text-anchor="middle" font-size="12" fill="#374151">6</text></g><g><line x1="199.7391304347826" y1="366" x2="199.7391304347826" y2="372" stroke="#111827" /><text x="199.7391304347826" y="402" text-anchor="middle" font-size="12" fill="#374151">7</text></g><g><line x1="222.69565217391306" y1="366" x2="222.69565217391306" y2="372" stroke="#111827" /><text x="222.69565217391306" y="402" text-anchor="middle" font-size="12" fill="#374151">8</text></g><g><line x1="245.65217391304347" y1="366" x2="245.65217391304347" y2="372" stroke="#111827" /><text x="245.65217391304347" y="402" text-anchor="middle" font-size="12" fill="#374151">9</text></g><g><line x1="268.60869565217394" y1="366" x2="268.60869565217394" y2="372" stroke="#111827" /><text x="268.60869565217394" y="402" text-anchor="middle" font-size="12" fill="#374151">10</text></g><g><line x1="291.5652173913044" y1="366" x2="291.5652173913044" y2="372" stroke="#111827" /><text x="291.5652173913044" y="402" text-anchor="middle" font-size="12" fill="#374151">11</text></g><g><line x1="314.52173913043475" y1="366" x2="314.52173913043475" y2="372" stroke="#111827" /><text x="314.52173913043475" y="402" text-anchor="middle" font-size="12" fill="#374151">12</text></g><g><line x1="337.4782608695652" y1="366" x2="337.4782608695652" y2="372" stroke="#111827" /><text x="337.4782608695652" y="402" text-anchor="middle" font-size="12" fill="#374151">13</text></g><g><line x1="360.4347826086956" y1="366" x2="360.4347826086956" y2="372" stroke="#111827" /><text x="360.4347826086956" y="402" text-anchor="middle" font-size="12" fill="#374151">14</text></g><g><line x1="383.3913043478261" y1="366" x2="383.3913043478261" y2="372" stroke="#111827" /><text x="383.3913043478261" y="402" text-anchor="middle" font-size="12" fill="#374151">15</text></g><g><line x1="406.3478260869565" y1="366" x2="406.3478260869565" y2="372" stroke="#111827" /><text x="406.3478260869565" y="402" text-anchor="middle" font-size="12" fill="#374151">16</text></g><g><line x1="429.30434782608694" y1="366" x2="429.30434782608694" y2="372" stroke="#111827" /><text x="429.30434782608694" y="402" text-anchor="middle" font-size="12" fill="#374151">17</text></g><g><line x1="452.2608695652174" y1="366" x2="452.2608695652174" y2="372" stroke="#111827" /><text x="452.2608695652174" y="402" text-anchor="middle" font-size="12" fill="#374151">18</text></g><g><line x1="475.21739130434787" y1="366" x2="475.21739130434787" y2="372" stroke="#111827" /><text x="475.21739130434787" y="402" text-anchor="middle" font-size="12" fill="#374151">19</text></g><g><line x1="498.17391304347825" y1="366" x2="498.17391304347825" y2="372" stroke="#111827" /><text x="498.17391304347825" y="402" text-anchor="middle" font-size="12" fill="#374151">20</text></g><g><line x1="521.1304347826087" y1="366" x2="521.1304347826087" y2="372" stroke="#111827" /><text x="521.1304347826087" y="402" text-anchor="middle" font-size="12" fill="#374151">21</text></g><g><line x1="544.0869565217391" y1="366" x2="544.0869565217391" y2="372" stroke="#111827" /><text x="544.0869565217391" y="402" text-anchor="middle" font-size="12" fill="#374151">22</text></g><g><line x1="567.0434782608695" y1="366" x2="567.0434782608695" y2="372" stroke="#111827" /><text x="567.0434782608695" y="402" text-anchor="middle" font-size="12" fill="#374151">23</text></g><g><line x1="590" y1="366" x2="590" y2="372" stroke="#111827" /><text x="590" y="402" text-anchor="middle" font-size="12" fill="#374151">24</text></g>
  <g><line x1="56" y1="366" x2="62" y2="366" stroke="#111827" /><text x="52" y="370" text-anchor="end" font-size="12" fill="#374151">0.0</text></g><g><line x1="56" y1="298.4" x2="62" y2="298.4" stroke="#111827" /><text x="52" y="302.4" text-anchor="end" font-size="12" fill="#374151">0.2</text></g><g><line x1="56" y1="230.79999999999998" x2="62" y2="230.79999999999998" stroke="#111827" /><text x="52" y="234.79999999999998" text-anchor="end" font-size="12" fill="#374151">0.4</text></g><g><line x1="56" y1="163.19999999999996" x2="62" y2="163.19999999999996" stroke="#111827" /><text x="52" y="167.19999999999996" text-anchor="end" font-size="12" fill="#374151">0.6</text></g><g><line x1="56" y1="95.59999999999997" x2="62" y2="95.59999999999997" stroke="#111827" /><text x="52" y="99.59999999999997" text-anchor="end" font-size="12" fill="#374151">0.8</text></g><g><line x1="56" y1="28" x2="62" y2="28" stroke="#111827" /><text x="52" y="32" text-anchor="end" font-size="12" fill="#374151">1.0</text></g>
  <path d="M 62.00 34.76 L 84.96 34.76 L 107.91 34.76 L 130.87 34.76 L 153.83 34.76 L 176.78 34.76 L 199.74 34.76 L 222.70 34.76 L 245.65 34.76 L 268.61 34.76 L 291.57 34.76 L 314.52 34.76 L 337.48 34.76 L 360.43 34.76 L 383.39 34.76 L 406.35 34.76 L 429.30 34.76 L 452.26 34.76 L 475.22 34.76 L 498.17 34.76 L 521.13 34.76 L 544.09 34.76 L 567.04 34.76 L 590.00 34.76" fill="none" stroke="#2563eb" stroke-width="3" /><circle cx="62.00" cy="34.76" r="4" fill="#2563eb" /><circle cx="84.96" cy="34.76" r="4" fill="#2563eb" /><circle cx="107.91" cy="34.76" r="4" fill="#2563eb" /><circle cx="130.87" cy="34.76" r="4" fill="#2563eb" /><circle cx="153.83" cy="34.76" r="4" fill="#2563eb" /><circle cx="176.78" cy="34.76" r="4" fill="#2563eb" /><circle cx="199.74" cy="34.76" r="4" fill="#2563eb" /><circle cx="222.70" cy="34.76" r="4" fill="#2563eb" /><circle cx="245.65" cy="34.76" r="4" fill="#2563eb" /><circle cx="268.61" cy="34.76" r="4" fill="#2563eb" /><circle cx="291.57" cy="34.76" r="4" fill="#2563eb" /><circle cx="314.52" cy="34.76" r="4" fill="#2563eb" /><circle cx="337.48" cy="34.76" r="4" fill="#2563eb" /><circle cx="360.43" cy="34.76" r="4" fill="#2563eb" /><circle cx="383.39" cy="34.76" r="4" fill="#2563eb" /><circle cx="406.35" cy="34.76" r="4" fill="#2563eb" /><circle cx="429.30" cy="34.76" r="4" fill="#2563eb" /><circle cx="452.26" cy="34.76" r="4" fill="#2563eb" /><circle cx="475.22" cy="34.76" r="4" fill="#2563eb" /><circle cx="498.17" cy="34.76" r="4" fill="#2563eb" /><circle cx="521.13" cy="34.76" r="4" fill="#2563eb" /><circle cx="544.09" cy="34.76" r="4" fill="#2563eb" /><circle cx="567.04" cy="34.76" r="4" fill="#2563eb" /><circle cx="590.00" cy="34.76" r="4" fill="#2563eb" /><path d="M 62.00 28.00 L 84.96 28.00 L 107.91 28.00 L 130.87 28.00 L 153.83 28.00 L 176.78 28.00 L 199.74 28.00 L 222.70 28.00 L 245.65 28.00 L 268.61 28.00 L 291.57 28.00 L 314.52 28.00 L 337.48 28.00 L 360.43 28.00 L 383.39 28.00 L 406.35 28.00 L 429.30 28.00 L 452.26 28.00 L 475.22 28.00 L 498.17 28.00 L 521.13 28.00 L 544.09 28.00 L 567.04 28.00 L 590.00 28.00" fill="none" stroke="#dc2626" stroke-width="3" /><circle cx="62.00" cy="28.00" r="4" fill="#dc2626" /><circle cx="84.96" cy="28.00" r="4" fill="#dc2626" /><circle cx="107.91" cy="28.00" r="4" fill="#dc2626" /><circle cx="130.87" cy="28.00" r="4" fill="#dc2626" /><circle cx="153.83" cy="28.00" r="4" fill="#dc2626" /><circle cx="176.78" cy="28.00" r="4" fill="#dc2626" /><circle cx="199.74" cy="28.00" r="4" fill="#dc2626" /><circle cx="222.70" cy="28.00" r="4" fill="#dc2626" /><circle cx="245.65" cy="28.00" r="4" fill="#dc2626" /><circle cx="268.61" cy="28.00" r="4" fill="#dc2626" /><circle cx="291.57" cy="28.00" r="4" fill="#dc2626" /><circle cx="314.52" cy="28.00" r="4" fill="#dc2626" /><circle cx="337.48" cy="28.00" r="4" fill="#dc2626" /><circle cx="360.43" cy="28.00" r="4" fill="#dc2626" /><circle cx="383.39" cy="28.00" r="4" fill="#dc2626" /><circle cx="406.35" cy="28.00" r="4" fill="#dc2626" /><circle cx="429.30" cy="28.00" r="4" fill="#dc2626" /><circle cx="452.26" cy="28.00" r="4" fill="#dc2626" /><circle cx="475.22" cy="28.00" r="4" fill="#dc2626" /><circle cx="498.17" cy="28.00" r="4" fill="#dc2626" /><circle cx="521.13" cy="28.00" r="4" fill="#dc2626" /><circle cx="544.09" cy="28.00" r="4" fill="#dc2626" /><circle cx="567.04" cy="28.00" r="4" fill="#dc2626" /><circle cx="590.00" cy="28.00" r="4" fill="#dc2626" /><path d="M 62.00 28.00 L 84.96 28.00 L 107.91 28.00 L 130.87 28.00 L 153.83 28.00 L 176.78 28.00 L 199.74 28.00 L 222.70 28.00 L 245.65 28.00 L 268.61 28.00 L 291.57 28.00 L 314.52 28.00 L 337.48 28.00 L 360.43 28.00 L 383.39 28.00 L 406.35 28.00 L 429.30 28.00 L 452.26 28.00 L 475.22 28.00 L 498.17 28.00 L 521.13 28.00 L 544.09 28.00 L 567.04 28.00 L 590.00 28.00" fill="none" stroke="#7c3aed" stroke-width="3" /><circle cx="62.00" cy="28.00" r="4" fill="#7c3aed" /><circle cx="84.96" cy="28.00" r="4" fill="#7c3aed" /><circle cx="107.91" cy="28.00" r="4" fill="#7c3aed" /><circle cx="130.87" cy="28.00" r="4" fill="#7c3aed" /><circle cx="153.83" cy="28.00" r="4" fill="#7c3aed" /><circle cx="176.78" cy="28.00" r="4" fill="#7c3aed" /><circle cx="199.74" cy="28.00" r="4" fill="#7c3aed" /><circle cx="222.70" cy="28.00" r="4" fill="#7c3aed" /><circle cx="245.65" cy="28.00" r="4" fill="#7c3aed" /><circle cx="268.61" cy="28.00" r="4" fill="#7c3aed" /><circle cx="291.57" cy="28.00" r="4" fill="#7c3aed" /><circle cx="314.52" cy="28.00" r="4" fill="#7c3aed" /><circle cx="337.48" cy="28.00" r="4" fill="#7c3aed" /><circle cx="360.43" cy="28.00" r="4" fill="#7c3aed" /><circle cx="383.39" cy="28.00" r="4" fill="#7c3aed" /><circle cx="406.35" cy="28.00" r="4" fill="#7c3aed" /><circle cx="429.30" cy="28.00" r="4" fill="#7c3aed" /><circle cx="452.26" cy="28.00" r="4" fill="#7c3aed" /><circle cx="475.22" cy="28.00" r="4" fill="#7c3aed" /><circle cx="498.17" cy="28.00" r="4" fill="#7c3aed" /><circle cx="521.13" cy="28.00" r="4" fill="#7c3aed" /><circle cx="544.09" cy="28.00" r="4" fill="#7c3aed" /><circle cx="567.04" cy="28.00" r="4" fill="#7c3aed" /><circle cx="590.00" cy="28.00" r="4" fill="#7c3aed" />
</svg>