<?xml version="1.0" encoding="UTF-8"?>
<svg xmlns="http://www.w3.org/2000/svg" width="820" height="420" viewBox="0 0 820 420" role="img" aria-label="Experiment 3: Question recovery on ambiguous traces">
  <rect width="820" height="420" fill="#ffffff" />
  <g><rect x="608" y="32" width="14" height="14" fill="#7c3aed" rx="2" /><text x="630" y="43" font-size="13" fill="#111827">Accuracy before question</text></g><g><rect x="608" y="60" width="14" height="14" fill="#0f766e" rx="2" /><text x="630" y="71" font-size="13" fill="#111827">Accuracy after question</text></g><g><rect x="608" y="88" width="14" height="14" fill="#ca8a04" rx="2" /><text x="630" y="99" font-size="13" fill="#111827">Rescued by questioning</text></g>
  <line x1="62" y1="366" x2="590" y2="366" stroke="#e5e7eb" /><line x1="62" y1="298.4" x2="590" y2="298.4" stroke="#e5e7eb" /><line x1="62" y1="230.79999999999998" x2="590" y2="230.79999999999998" stroke="#e5e7eb" /><line x1="62" y1="163.19999999999996" x2="590" y2="163.19999999999996" stroke="#e5e7eb" /><line x1="62" y1="95.59999999999997" x2="590" y2="95.59999999999997" stroke="#e5e7eb" /><line x1="62" y1="28" x2="590" y2="28" stroke="#e5e7eb" />
  <line x1="62" y1="28" x2="62" y2="366" stroke="#111827" />
  <line x1="62" y1="366" x2="590" y2="366" stroke="#111827" />
  <g><line x1="56" y1="366" x2="62" y2="366" stroke="#111827" /><text x="52" y="370" text-anchor="end" font-size="12" fill="#374151">0.0</text></g><g><line x1="56" y1="298.4" x2="62" y2="298.4" stroke="#111827" /><text x="52" y="302.4" text-anchor="end" font-size="12" fill="#374151">0.2</text></g><g><line x1="56" y1="230.79999999999998" x2="62" y2="230.79999999999998" stroke="#111827" /><text x="52" y="234.79999999999998" text-anchor="end" font-size="12" fill="#374151">0.4</text></g><g><line x1="56" y1="163.19999999999996" x2="62" y2="163.19999999999996" stroke="#111827" /><text x="52" y="167.19999999999996" text-anchor="end" font-size="12" fill="#374151">0.6</text></g><g><line x1="56" y1="95.59999999999997" x2="62" y2="95.59999999999997" stroke="#111827" /><text x="52" y="99.59999999999997" text-anchor="end" font-size="12" fill="#374151">0.8</text></g><g><line x1="56" y1="28" x2="62" y2="28" stroke="#111827" /><text x="52" y="32" text-anchor="end" font-size="12" fill="#374151">1.0</text></g>
  <g><rect x="77.84" y="230.79999999999998" width="33" height="135.20000000000002" fill="#7c3aed" rx="3" /><text x="94.34" y="224.79999999999998" text-anchor="middle" font-size="11" fill="#374151">0.40</text></g><g><rect x="118.84" y="163.20000000000002" width="33" height="202.79999999999998" fill="#0f766e" rx="3" /><text x="135.34" y="157.20000000000002" text-anchor="middle" font-size="11" fill="#374151">0.60</text></g><g><rect x="159.84" y="298.4" width="33" height="67.60000000000001" fill="#ca8a04" rx="3" /><text x="176.34" y="292.4" text-anchor="middle" font-size="11" fill="#374151">0.20</text></g><text x="135.34" y="402" text-anchor="middle" font-size="12" fill="#374151">Clean P2</text><g><rect x="209.84" y="253.446" width="33" height="112.554" fill="#7c3aed" rx="3" /><text x="226.34" y="247.446" text-anchor="middle" font-size="11" fill="#374151">0.33</text></g><g><rect x="250.84" y="140.55399999999997" width="33" height="225.44600000000003" fill="#0f766e" rx="3" /><text x="267.34000000000003" y="134.55399999999997" text-anchor="middle" font-size="11" fill="#374151">0.67</text></g><g><rect x="291.84000000000003" y="253.446" width="33" height="112.554" fill="#ca8a04" rx="3" /><text x="308.34000000000003" y="247.446" text-anchor="middle" font-size="11" fill="#374151">0.33</text></g><text x="267.34000000000003" y="402" text-anchor="middle" font-size="12" fill="#374151">Masked P2</text><g><rect x="341.84" y="28" width="33" height="338" fill="#7c3aed" rx="3" /><text x="358.34" y="22" text-anchor="middle" font-size="11" fill="#374151">1.00</text></g><g><rect x="382.84" y="28" width="33" height="338" fill="#0f766e" rx="3" /><text x="399.34" y="22" text-anchor="middle" font-size="11" fill="#374151">1.00</text></g><g><rect x="423.84" y="366" width="33" height="0" fill="#ca8a04" rx="3" /><text x="440.34" y="360" text-anchor="middle" font-size="11" fill="#374151">0.00</text></g><text x="399.34" y="402" text-anchor="middle" font-size="12" fill="#374151">Clean P3</text><g><rect x="473.84" y="275.754" width="33" height="90.24600000000001" fill="#7c3aed" rx="3" /><text x="490.34" y="269.754" text-anchor="middle" font-size="11" fill="#374151">0.27</text></g><g><rect x="514.8399999999999" y="140.55399999999997" width="33" height="225.44600000000003" fill="#0f766e" rx="3" /><text x="531.3399999999999" y="134.55399999999997" text-anchor="middle" font-size="11" fill="#374151">0.67</text></g><g><rect x="555.8399999999999" y="230.79999999999998" width="33" height="135.20000000000002" fill="#ca8a04" rx="3" /><text x="572.3399999999999" y="224.79999999999998" text-anchor="middle" font-size="11" fill="#374151">0.40</text></g><text x="531.3399999999999" y="402" text-anchor="middle" font-size="12" fill="#374151">Masked P3</text>
</svg>