<?xml version="1.0" encoding="UTF-8"?>
<svg xmlns="http://www.w3.org/2000/svg" width="820" height="420" viewBox="0 0 820 420" role="img" aria-label="Experiment 3: Baseline comparison under cue masking">
  <rect width="820" height="420" fill="#ffffff" />
  <g><rect x="608" y="32" width="14" height="14" fill="#6b7280" rx="2" /><text x="630" y="43" font-size="13" fill="#111827">Lexical baseline</text></g><g><rect x="608" y="60" width="14" height="14" fill="#2563eb" rx="2" /><text x="630" y="71" font-size="13" fill="#111827">Single theory</text></g><g><rect x="608" y="88" width="14" height="14" fill="#dc2626" rx="2" /><text x="630" y="99" font-size="13" fill="#111827">Frontier top</text></g><g><rect x="608" y="116" width="14" height="14" fill="#059669" rx="2" /><text x="630" y="127" font-size="13" fill="#111827">Frontier + one question</text></g>
  <line x1="62" y1="366" x2="590" y2="366" stroke="#e5e7eb" /><line x1="62" y1="298.4" x2="590" y2="298.4" stroke="#e5e7eb" /><line x1="62" y1="230.79999999999998" x2="590" y2="230.79999999999998" stroke="#e5e7eb" /><line x1="62" y1="163.19999999999996" x2="590" y2="163.19999999999996" stroke="#e5e7eb" /><line x1="62" y1="95.59999999999997" x2="590" y2="95.59999999999997" stroke="#e5e7eb" /><line x1="62" y1="28" x2="590" y2="28" stroke="#e5e7eb" />
  <line x1="62" y1="28" x2="62" y2="366" stroke="#111827" />
  <line x1="62" y1="366" x2="590" y2="366" stroke="#111827" />
  <g><line x1="56" y1="366" x2="62" y2="366" stroke="#111827" /><text x="52" y="370" text-anchor="end" font-size="12" fill="#374151">0.0</text></g><g><line x1="56" y1="298.4" x2="62" y2="298.4" stroke="#111827" /><text x="52" y="302.4" text-anchor="end" font-size="12" fill="#374151">0.2</text></g><g><line x1="56" y1="230.79999999999998" x2="62" y2="230.79999999999998" stroke="#111827" /><text x="52" y="234.79999999999998" text-anchor="end" font-size="12" fill="#374151">0.4</text></g><g><line x1="56" y1="163.19999999999996" x2="62" y2="163.19999999999996" stroke="#111827" /><text x="52" y="167.19999999999996" text-anchor="end" font-size="12" fill="#374151">0.6</text></g><g><line x1="56" y1="95.59999999999997" x2="62" y2="95.59999999999997" stroke="#111827" /><text x="52" y="99.59999999999997" text-anchor="end" font-size="12" fill="#374151">0.8</text></g><g><line x1="56" y1="28" x2="62" y2="28" stroke="#111827" /><text x="52" y="32" text-anchor="end" font-size="12" fill="#374151">1.0</text></g>
  <g><rect x="77.84" y="103.036" width="24.75" height="262.964" fill="#6b7280" rx="3" /><text x="90.215" y="97.036" text-anchor="middle" font-size="11" fill="#374151">0.78</text></g><g><rect x="110.59" y="84.44600000000003" width="24.75" height="281.554" fill="#2563eb" rx="3" /><text x="122.965" y="78.44600000000003" text-anchor="middle" font-size="11" fill="#374151">0.83</text></g><g><rect x="143.34" y="84.44600000000003" width="24.75" height="281.554" fill="#dc2626" rx="3" /><text x="155.715" y="78.44600000000003" text-anchor="middle" font-size="11" fill="#374151">0.83</text></g><g><rect x="176.09" y="65.51799999999997" width="24.75" height="300.482" fill="#059669" rx="3" /><text x="188.465" y="59.51799999999997" text-anchor="middle" font-size="11" fill="#374151">0.89</text></g><text x="139.34" y="402" text-anchor="middle" font-size="12" fill="#374151">Clean P2</text><g><rect x="209.84" y="253.446" width="24.75" height="112.554" fill="#6b7280" rx="3" /><text x="222.215" y="247.446" text-anchor="middle" font-size="11" fill="#374151">0.33</text></g><g><rect x="242.59" y="253.446" width="24.75" height="112.554" fill="#2563eb" rx="3" /><text x="254.965" y="247.446" text-anchor="middle" font-size="11" fill="#374151">0.33</text></g><g><rect x="275.34000000000003" y="253.446" width="24.75" height="112.554" fill="#dc2626" rx="3" /><text x="287.71500000000003" y="247.446" text-anchor="middle" font-size="11" fill="#374151">0.33</text></g><g><rect x="308.09000000000003" y="140.55399999999997" width="24.75" height="225.44600000000003" fill="#059669" rx="3" /><text x="320.46500000000003" y="134.55399999999997" text-anchor="middle" font-size="11" fill="#374151">0.67</text></g><text x="271.34000000000003" y="402" text-anchor="middle" font-size="12" fill="#374151">Masked P2</text><g><rect x="341.84" y="46.928" width="24.75" height="319.072" fill="#6b7280" rx="3" /><text x="354.215" y="40.928" text-anchor="middle" font-size="11" fill="#374151">0.94</text></g><g><rect x="374.59" y="28" width="24.75" height="338" fill="#2563eb" rx="3" /><text x="386.965" y="22" text-anchor="middle" font-size="11" fill="#374151">1.00</text></g><g><rect x="407.34" y="28" width="24.75" height="338" fill="#dc2626" rx="3" /><text x="419.715" y="22" text-anchor="middle" font-size="11" fill="#374151">1.00</text></g><g><rect x="440.09" y="28" width="24.75" height="338" fill="#059669" rx="3" /><text x="452.465" y="22" text-anchor="middle" font-size="11" fill="#374151">1.00</text></g><text x="403.34" y="402" text-anchor="middle" font-size="12" fill="#374151">Clean P3</text><g><rect x="473.84" y="197" width="24.75" height="169" fill="#6b7280" rx="3" /><text x="486.215" y="191" text-anchor="middle" font-size="11" fill="#374151">0.50</text></g><g><rect x="506.59" y="234.518" width="24.75" height="131.482" fill="#2563eb" rx="3" /><text x="518.9649999999999" y="228.518" text-anchor="middle" font-size="11" fill="#374151">0.39</text></g><g><rect x="539.3399999999999" y="234.518" width="24.75" height="131.482" fill="#dc2626" rx="3" /><text x="551.7149999999999" y="228.518" text-anchor="middle" font-size="11" fill="#374151">0.39</text></g><g><rect x="572.0899999999999" y="121.964" width="24.75" height="244.036" fill="#059669" rx="3" /><text x="584.4649999999999" y="115.964" text-anchor="middle" font-size="11" fill="#374151">0.72</text></g><text x="535.3399999999999" y="402" text-anchor="middle" font-size="12" fill="#374151">Masked P3</text>
</svg>